<?xml version="1.0" encoding="UTF-8"?>
<svg xmlns="http://www.w3.org/2000/svg" xmlns:xlink="http://www.w3.org/1999/xlink" width="283.5pt" height="283.499996pt" viewBox="0 0 283.5 283.499996" version="1.2">
<defs>
<clipPath id="clip1">
  <path d="M 6 8 L 280 8 L 280 281 L 6 281 Z M 6 8 "/>
</clipPath>
<clipPath id="clip2">
  <path d="M 28.347656 -4.066406 L 284.367188 27.816406 L 251.839844 289.046875 L -4.183594 257.167969 Z M 28.347656 -4.066406 "/>
</clipPath>
<clipPath id="clip3">
  <path d="M 284.566406 27.839844 L 28.542969 -4.039062 L -3.984375 257.191406 L 252.035156 289.074219 Z M 284.566406 27.839844 "/>
</clipPath>
</defs>
<g id="surface1">
<g clip-path="url(#clip1)" clip-rule="nonzero">
<g clip-path="url(#clip2)" clip-rule="nonzero">
<g clip-path="url(#clip3)" clip-rule="nonzero">
<path style=" stroke:none;fill-rule:nonzero;fill:rgb(12.939453%,61.959839%,72.938538%);fill-opacity:1;" d="M 186.367188 266.144531 C 184.261719 269.597656 182.449219 272.613281 180.640625 275.625 C 180.0625 276.390625 179.609375 277.175781 179.136719 278.074219 C 178.84375 278.519531 178.886719 279.125 179.0625 279.625 C 179.492188 280.039062 179.960938 280.097656 180.449219 280.039062 C 182.289062 279.667969 184.148438 279.179688 186.003906 278.691406 C 195.492188 275.554688 203.976562 270.855469 210.445312 263.144531 C 211.253906 262.40625 212.183594 261.683594 213.183594 261.328125 C 218.121094 259.183594 222.878906 256.539062 227.433594 253.628906 C 231.882812 250.582031 235.625 246.492188 238.261719 241.664062 C 241.398438 235.699219 243.972656 229.421875 245.742188 222.925781 C 250.097656 208.117188 254.707031 193.222656 258.949219 178.398438 C 261.539062 169.128906 263.65625 159.796875 265.675781 150.332031 C 268.28125 138.066406 270.621094 126.003906 272.722656 113.914062 C 274.605469 103.59375 276.019531 93.214844 277.550781 82.851562 C 278.402344 76.960938 278.902344 71.027344 279.296875 64.960938 C 279.574219 56.960938 278.425781 48.902344 275.769531 41.375 C 274.621094 38.113281 272.703125 35.238281 270.109375 32.996094 C 268.621094 31.492188 266.707031 30.53125 264.597656 30.152344 C 256.847656 28.945312 249.550781 26 241.992188 24.21875 C 236.554688 22.699219 231.074219 21.539062 225.546875 20.730469 C 216.144531 19.320312 206.582031 18.25 196.976562 17.53125 C 191.640625 17.109375 186.203125 17.511719 180.707031 17.425781 C 174.855469 17.296875 168.992188 17.285156 163.070312 16.789062 C 155.996094 15.90625 148.863281 15.5 141.789062 15.578125 C 141.1875 15.621094 140.597656 15.550781 140.125 15.492188 L 103.597656 11.78125 C 95.683594 10.914062 87.769531 10.050781 79.722656 9.289062 C 76.289062 8.980469 72.84375 8.792969 69.511719 8.617188 C 65.8125 8.515625 62.128906 9.257812 58.609375 10.617188 C 55.085938 11.976562 51.640625 13.707031 48.117188 15.066406 C 41.695312 17.625 36.332031 22.234375 32.828125 28.273438 C 28.289062 35.863281 24.179688 43.867188 22.488281 52.652344 C 20.015625 64.816406 18.605469 77.113281 18.253906 89.542969 C 18.152344 97.085938 17.34375 104.539062 16.535156 111.996094 C 13.769531 136.117188 10.890625 160.222656 8.242188 184.359375 C 7.375 192.285156 7.097656 200.285156 6.582031 208.257812 C 6.394531 211.710938 6.085938 215.152344 6.144531 218.515625 C 6.070312 220.066406 6.335938 221.777344 6.984375 223.296875 C 8.164062 226.324219 9.582031 229.378906 11.113281 232.449219 C 14.933594 240.238281 21.195312 244.738281 29.476562 247.445312 C 42.046875 251.289062 55.132812 253.878906 68.277344 255.035156 C 83.660156 256.472656 99.132812 258.160156 114.445312 260.1875 C 132.703125 262.578125 151.121094 263.671875 169.480469 265.242188 C 174.84375 265.429688 180.195312 265.734375 186.367188 266.144531 Z M 186.367188 266.144531 "/>
</g>
</g>
</g>
</g>
</svg>
