<?xml version="1.0" encoding="UTF-8"?>
<svg xmlns="http://www.w3.org/2000/svg" xmlns:xlink="http://www.w3.org/1999/xlink" width="283.5pt" height="283.499996pt" viewBox="0 0 283.5 283.499996" version="1.2">
<defs>
<clipPath id="clip1">
  <path d="M 125 142 L 271 142 L 271 280 L 125 280 Z M 125 142 "/>
</clipPath>
<clipPath id="clip2">
  <path d="M 158.078125 309.957031 L 98.15625 174.082031 L 241.578125 110.832031 L 301.5 246.703125 Z M 158.078125 309.957031 "/>
</clipPath>
<clipPath id="clip3">
  <path d="M 155.988281 340.152344 L 85.171875 179.578125 L 260.160156 102.402344 L 330.976562 262.980469 Z M 155.988281 340.152344 "/>
</clipPath>
<clipPath id="clip4">
  <path d="M 2 63 L 149 63 L 149 201 L 2 201 Z M 2 63 "/>
</clipPath>
<clipPath id="clip5">
  <path d="M 34.214844 232.027344 L -25.40625 96.839844 L 118.703125 33.285156 L 178.320312 168.472656 Z M 34.214844 232.027344 "/>
</clipPath>
<clipPath id="clip6">
  <path d="M 33.652344 261.097656 L -37.164062 100.519531 L 137.824219 23.347656 L 208.640625 183.925781 Z M 33.652344 261.097656 "/>
</clipPath>
<clipPath id="clip7">
  <path d="M 132 1 L 283 1 L 283 142 L 132 142 Z M 132 1 "/>
</clipPath>
<clipPath id="clip8">
  <path d="M 164.75 172.640625 L 103.617188 34.019531 L 250.472656 -30.742188 L 311.605469 107.875 Z M 164.75 172.640625 "/>
</clipPath>
<clipPath id="clip9">
  <path d="M 164.441406 203.984375 L 91.808594 39.289062 L 271.601562 -40.003906 L 344.234375 124.691406 Z M 164.441406 203.984375 "/>
</clipPath>
</defs>
<g id="surface1">
<g clip-path="url(#clip1)" clip-rule="nonzero">
<g clip-path="url(#clip2)" clip-rule="nonzero">
<g clip-path="url(#clip3)" clip-rule="nonzero">
<path style=" stroke:none;fill-rule:nonzero;fill:rgb(12.939453%,61.959839%,72.938538%);fill-opacity:1;" d="M 137.742188 172.394531 C 162.292969 145.570312 195.878906 137.164062 219.878906 146.042969 C 243.882812 154.925781 297.265625 186.535156 254.054688 251.246094 C 210.84375 315.957031 118.875 255.996094 125.390625 207.972656 C 129.410156 178.277344 137.742188 172.394531 137.742188 172.394531 Z M 137.742188 172.394531 "/>
</g>
</g>
</g>
<g clip-path="url(#clip4)" clip-rule="nonzero">
<g clip-path="url(#clip5)" clip-rule="nonzero">
<g clip-path="url(#clip6)" clip-rule="nonzero">
<path style=" stroke:none;fill-rule:nonzero;fill:rgb(70.979309%,69.40918%,10.198975%);fill-opacity:1;" d="M 15.40625 93.335938 C 39.953125 66.511719 73.542969 58.105469 97.542969 66.988281 C 121.546875 75.871094 174.925781 107.480469 131.71875 172.1875 C 88.507812 236.898438 -3.460938 176.9375 3.054688 128.914062 C 7.074219 99.21875 15.40625 93.335938 15.40625 93.335938 Z M 15.40625 93.335938 "/>
</g>
</g>
</g>
<g clip-path="url(#clip7)" clip-rule="nonzero">
<g clip-path="url(#clip8)" clip-rule="nonzero">
<g clip-path="url(#clip9)" clip-rule="nonzero">
<path style=" stroke:none;fill-rule:nonzero;fill:rgb(96.859741%,54.508972%,9.408569%);fill-opacity:1;" d="M 145.8125 31.882812 C 171.046875 4.347656 205.550781 -4.300781 230.199219 4.796875 C 254.84375 13.890625 309.65625 46.285156 265.230469 112.703125 C 220.804688 179.121094 126.375 117.667969 133.101562 68.390625 C 137.25 37.925781 145.8125 31.882812 145.8125 31.882812 Z M 145.8125 31.882812 "/>
</g>
</g>
</g>
</g>
</svg>
