<?xml version="1.0" encoding="UTF-8"?>
<svg xmlns="http://www.w3.org/2000/svg" xmlns:xlink="http://www.w3.org/1999/xlink" width="283.5pt" height="283.499996pt" viewBox="0 0 283.5 283.499996" version="1.2">
<defs>
<clipPath id="clip1">
  <path d="M 33 22.507812 L 77 22.507812 L 77 86 L 33 86 Z M 33 22.507812 "/>
</clipPath>
<clipPath id="clip2">
  <path d="M 91 22.507812 L 135 22.507812 L 135 86 L 91 86 Z M 91 22.507812 "/>
</clipPath>
<clipPath id="clip3">
  <path d="M 214 41 L 257 41 L 257 102.917969 L 214 102.917969 Z M 214 41 "/>
</clipPath>
<clipPath id="clip4">
  <path d="M 157 41 L 200 41 L 200 102.917969 L 157 102.917969 Z M 157 41 "/>
</clipPath>
</defs>
<g id="surface1">
<g clip-path="url(#clip1)" clip-rule="nonzero">
<path style=" stroke:none;fill-rule:nonzero;fill:rgb(12.939453%,61.959839%,72.938538%);fill-opacity:1;" d="M 54.773438 41.941406 C 54 41.941406 53.230469 41.980469 52.476562 42.0625 C 53.621094 35.382812 57.617188 30.15625 62.621094 25.882812 C 63.984375 24.71875 62.921875 22.515625 61.160156 22.851562 C 39.765625 26.984375 34.625 49.390625 33.367188 59.359375 C 33.140625 60.976562 33.109375 62.125 33.109375 63.601562 C 33.109375 75.566406 42.808594 85.269531 54.773438 85.269531 C 66.738281 85.269531 76.441406 75.566406 76.441406 63.601562 C 76.441406 51.640625 66.738281 41.941406 54.773438 41.941406 "/>
</g>
<g clip-path="url(#clip2)" clip-rule="nonzero">
<path style=" stroke:none;fill-rule:nonzero;fill:rgb(12.939453%,61.959839%,72.938538%);fill-opacity:1;" d="M 113.128906 41.941406 C 112.355469 41.941406 111.589844 41.980469 110.835938 42.0625 C 111.972656 35.382812 115.976562 30.15625 120.976562 25.882812 C 122.34375 24.71875 121.28125 22.515625 119.515625 22.851562 C 98.121094 26.984375 92.980469 49.390625 91.722656 59.359375 C 91.5 60.976562 91.464844 62.125 91.464844 63.601562 C 91.464844 75.566406 101.164062 85.269531 113.128906 85.269531 C 125.09375 85.269531 134.800781 75.566406 134.800781 63.601562 C 134.800781 51.640625 125.09375 41.941406 113.128906 41.941406 "/>
</g>
<g clip-path="url(#clip3)" clip-rule="nonzero">
<path style=" stroke:none;fill-rule:nonzero;fill:rgb(12.939453%,61.959839%,72.938538%);fill-opacity:1;" d="M 235.25 83.953125 C 236.007812 83.953125 236.753906 83.910156 237.488281 83.832031 C 236.375 90.351562 232.472656 95.453125 227.589844 99.621094 C 226.257812 100.761719 227.292969 102.910156 229.015625 102.582031 C 249.902344 98.550781 254.917969 76.679688 256.148438 66.949219 C 256.367188 65.371094 256.398438 64.25 256.398438 62.808594 C 256.398438 51.132812 246.929688 41.660156 235.25 41.660156 C 223.570312 41.660156 214.097656 51.132812 214.097656 62.808594 C 214.097656 74.484375 223.570312 83.953125 235.25 83.953125 "/>
</g>
<g clip-path="url(#clip4)" clip-rule="nonzero">
<path style=" stroke:none;fill-rule:nonzero;fill:rgb(12.939453%,61.959839%,72.938538%);fill-opacity:1;" d="M 178.28125 83.953125 C 179.039062 83.953125 179.785156 83.910156 180.519531 83.832031 C 179.410156 90.351562 175.503906 95.453125 170.621094 99.621094 C 169.289062 100.761719 170.324219 102.910156 172.046875 102.582031 C 192.933594 98.550781 197.949219 76.679688 199.179688 66.949219 C 199.398438 65.371094 199.429688 64.25 199.429688 62.808594 C 199.429688 51.132812 189.960938 41.660156 178.28125 41.660156 C 166.601562 41.660156 157.128906 51.132812 157.128906 62.808594 C 157.128906 74.484375 166.601562 83.953125 178.28125 83.953125 "/>
</g>
</g>
</svg>
