<?xml version="1.0" encoding="UTF-8"?>
<svg xmlns="http://www.w3.org/2000/svg" xmlns:xlink="http://www.w3.org/1999/xlink" width="283.5pt" height="283.499996pt" viewBox="0 0 283.5 283.499996" version="1.2">
<defs>
<clipPath id="clip1">
  <path d="M 0 97 L 52 97 L 52 153.171875 L 0 153.171875 Z M 0 97 "/>
</clipPath>
<clipPath id="clip2">
  <path d="M 211 41 L 283 41 L 283 153 L 211 153 Z M 211 41 "/>
</clipPath>
</defs>
<g id="surface1">
<path style=" stroke:none;fill-rule:nonzero;fill:rgb(12.939453%,61.959839%,72.938538%);fill-opacity:1;" d="M 89.851562 55.761719 C 89.851562 56.425781 89.785156 57.082031 89.65625 57.730469 C 89.527344 58.382812 89.335938 59.011719 89.082031 59.625 C 88.828125 60.238281 88.519531 60.820312 88.148438 61.371094 C 87.78125 61.921875 87.363281 62.429688 86.894531 62.898438 C 86.425781 63.367188 85.917969 63.785156 85.367188 64.152344 C 84.816406 64.523438 84.234375 64.832031 83.621094 65.085938 C 83.007812 65.339844 82.378906 65.53125 81.726562 65.660156 C 81.078125 65.789062 80.421875 65.855469 79.757812 65.855469 C 79.097656 65.855469 78.441406 65.789062 77.789062 65.660156 C 77.140625 65.53125 76.511719 65.339844 75.898438 65.085938 C 75.285156 64.832031 74.703125 64.523438 74.152344 64.152344 C 73.601562 63.785156 73.09375 63.367188 72.625 62.898438 C 72.15625 62.429688 71.738281 61.921875 71.367188 61.371094 C 71 60.820312 70.691406 60.238281 70.4375 59.625 C 70.183594 59.011719 69.992188 58.382812 69.863281 57.730469 C 69.734375 57.082031 69.667969 56.425781 69.667969 55.761719 C 69.667969 55.101562 69.734375 54.445312 69.863281 53.792969 C 69.992188 53.144531 70.183594 52.511719 70.4375 51.902344 C 70.691406 51.289062 71 50.707031 71.367188 50.15625 C 71.738281 49.605469 72.15625 49.09375 72.625 48.625 C 73.09375 48.15625 73.601562 47.738281 74.152344 47.371094 C 74.703125 47.003906 75.285156 46.691406 75.898438 46.4375 C 76.511719 46.183594 77.140625 45.992188 77.789062 45.863281 C 78.441406 45.734375 79.097656 45.671875 79.757812 45.671875 C 80.421875 45.671875 81.078125 45.734375 81.726562 45.863281 C 82.378906 45.992188 83.007812 46.183594 83.621094 46.4375 C 84.234375 46.691406 84.816406 47.003906 85.367188 47.371094 C 85.917969 47.738281 86.425781 48.15625 86.894531 48.625 C 87.363281 49.09375 87.78125 49.605469 88.148438 50.15625 C 88.519531 50.707031 88.828125 51.289062 89.082031 51.902344 C 89.335938 52.511719 89.527344 53.144531 89.65625 53.792969 C 89.785156 54.445312 89.851562 55.101562 89.851562 55.761719 Z M 89.851562 55.761719 "/>
<path style=" stroke:none;fill-rule:nonzero;fill:rgb(12.939453%,61.959839%,72.938538%);fill-opacity:1;" d="M 143.019531 19 C 143.664062 19.15625 144.289062 19.371094 144.890625 19.648438 C 145.492188 19.925781 146.058594 20.261719 146.597656 20.648438 C 147.132812 21.039062 147.625 21.476562 148.074219 21.964844 C 148.523438 22.449219 148.921875 22.976562 149.269531 23.542969 C 149.613281 24.105469 149.902344 24.699219 150.132812 25.320312 C 150.359375 25.945312 150.527344 26.582031 150.628906 27.234375 C 150.734375 27.890625 150.773438 28.550781 150.746094 29.210938 C 150.71875 29.875 150.628906 30.527344 150.476562 31.171875 C 150.320312 31.816406 150.105469 32.4375 149.828125 33.039062 C 149.550781 33.640625 149.214844 34.210938 148.824219 34.746094 C 148.4375 35.28125 148 35.773438 147.511719 36.226562 C 147.023438 36.675781 146.5 37.074219 145.933594 37.417969 C 145.371094 37.765625 144.777344 38.050781 144.152344 38.28125 C 143.53125 38.511719 142.894531 38.675781 142.238281 38.78125 C 141.585938 38.882812 140.925781 38.921875 140.265625 38.898438 C 139.601562 38.871094 138.949219 38.78125 138.304688 38.625 C 137.660156 38.472656 137.039062 38.253906 136.4375 37.976562 C 135.835938 37.699219 135.265625 37.367188 134.730469 36.976562 C 134.195312 36.585938 133.703125 36.148438 133.25 35.664062 C 132.800781 35.175781 132.402344 34.648438 132.058594 34.085938 C 131.710938 33.519531 131.425781 32.925781 131.195312 32.304688 C 130.964844 31.683594 130.800781 31.042969 130.695312 30.390625 C 130.59375 29.734375 130.554688 29.078125 130.578125 28.414062 C 130.605469 27.753906 130.695312 27.101562 130.851562 26.457031 C 131.007812 25.8125 131.222656 25.1875 131.5 24.585938 C 131.777344 23.984375 132.109375 23.414062 132.5 22.878906 C 132.890625 22.34375 133.328125 21.851562 133.816406 21.402344 C 134.300781 20.953125 134.828125 20.554688 135.390625 20.207031 C 135.957031 19.863281 136.550781 19.574219 137.171875 19.34375 C 137.792969 19.113281 138.433594 18.949219 139.085938 18.84375 C 139.742188 18.742188 140.398438 18.703125 141.0625 18.730469 C 141.722656 18.753906 142.375 18.84375 143.019531 19 Z M 143.019531 19 "/>
<g clip-path="url(#clip1)" clip-rule="nonzero">
<path style=" stroke:none;fill-rule:nonzero;fill:rgb(12.939453%,61.959839%,72.938538%);fill-opacity:1;" d="M 46.601562 108.734375 C 46.429688 109.242188 46.230469 109.734375 46 110.210938 C 45.300781 111.652344 43.957031 113.632812 41.542969 114.875 C 40.183594 115.578125 38.621094 115.949219 37.023438 115.949219 L 37 115.949219 C 36.15625 115.949219 35.300781 115.851562 34.429688 115.65625 C 34.398438 116.167969 34.355469 116.679688 34.296875 117.195312 C 32.863281 118.738281 31.300781 120.0625 29.671875 121.152344 C 29.335938 119.214844 28.765625 117.429688 28.023438 115.820312 C 28.335938 114.960938 28.59375 114.078125 28.796875 113.179688 C 26.878906 111.945312 24.941406 110.320312 22.90625 108.238281 C 21.179688 106.464844 21.21875 103.621094 22.992188 101.894531 C 23.441406 101.453125 23.972656 101.125 24.550781 100.910156 C 21.488281 101.054688 18.554688 99.902344 16.410156 97.847656 C 16.351562 97.792969 16.300781 97.730469 16.242188 97.675781 C 15.488281 98.582031 14.90625 99.890625 14.78125 101.03125 C 14.628906 101.507812 14.570312 102.023438 14.636719 102.554688 L 14.636719 102.5625 C 14.648438 102.671875 14.730469 103.445312 14.730469 104.410156 C 14.746094 105.5625 14.574219 107.03125 14.289062 107.722656 C 14.265625 107.78125 14.242188 107.832031 14.222656 107.878906 C 13.878906 107.792969 13.210938 107.546875 12.265625 106.933594 C 10.886719 106.054688 8.964844 104.472656 6.566406 102.007812 C 5.183594 100.585938 2.910156 100.554688 1.492188 101.9375 C 0.0742188 103.320312 0.0429688 105.59375 1.425781 107.011719 C 4.082031 109.738281 6.339844 111.660156 8.40625 112.980469 C 10.464844 114.285156 12.382812 115.078125 14.484375 115.097656 C 14.515625 115.097656 14.546875 115.097656 14.578125 115.097656 C 16.15625 115.097656 17.761719 114.464844 18.832031 113.496094 C 20.207031 112.261719 20.851562 110.839844 21.246094 109.511719 C 23.34375 112.589844 24.597656 116.078125 24.722656 121.09375 L 16.363281 118.074219 C 14.496094 117.402344 12.398438 117.769531 10.871094 119.039062 C 9.347656 120.3125 8.605469 122.3125 8.929688 124.269531 L 12.96875 148.492188 C 13.425781 151.234375 15.800781 153.175781 18.492188 153.175781 C 18.796875 153.175781 19.105469 153.152344 19.417969 153.097656 C 22.472656 152.589844 24.535156 149.703125 24.027344 146.648438 L 21.566406 131.875 L 23.707031 132.648438 C 24.015625 132.074219 24.410156 131.542969 24.890625 131.082031 L 36.804688 119.570312 L 37.523438 120.121094 L 25.515625 131.726562 C 24.335938 132.867188 23.710938 134.488281 23.816406 136.128906 C 23.925781 137.765625 24.761719 139.292969 26.082031 140.269531 L 42.078125 152.078125 C 43.078125 152.820312 44.246094 153.175781 45.402344 153.175781 C 47.121094 153.175781 48.816406 152.386719 49.917969 150.898438 C 51.757812 148.40625 51.226562 144.898438 48.738281 143.058594 L 38.070312 135.183594 L 46.515625 127.023438 L 46.613281 126.929688 C 47.726562 125.855469 48.296875 124.429688 48.320312 122.992188 C 48.320312 122.988281 48.324219 122.980469 48.324219 122.976562 C 48.328125 117.507812 47.722656 113.011719 46.601562 108.734375 Z M 46.601562 108.734375 "/>
</g>
<path style=" stroke:none;fill-rule:nonzero;fill:rgb(12.939453%,61.959839%,72.938538%);fill-opacity:1;" d="M 37.3125 89.589844 C 36.597656 89.320312 35.820312 89.148438 35.082031 89.070312 C 35.113281 89.878906 35.050781 90.675781 34.90625 91.453125 C 34.488281 94.417969 32.871094 97.109375 30.433594 98.859375 C 30.210938 99.5625 29.75 100.054688 29.1875 100.324219 C 28.597656 100.601562 27.90625 100.644531 27.210938 100.449219 C 27.074219 100.492188 26.9375 100.535156 26.792969 100.570312 C 26.683594 100.601562 26.570312 100.621094 26.457031 100.644531 C 27.152344 100.699219 27.8125 100.898438 28.398438 101.25 C 28.871094 101.242188 29.332031 101.160156 29.753906 100.980469 C 29.753906 100.980469 29.757812 100.980469 29.757812 100.980469 C 30.179688 100.804688 30.5625 100.53125 30.882812 100.171875 C 31.800781 101.785156 32.554688 103.503906 33.132812 105.292969 C 33.621094 105.636719 34.042969 105.898438 34.390625 106.089844 C 35.824219 106.894531 36.679688 106.980469 36.984375 106.980469 C 37.28125 106.976562 37.375 106.929688 37.445312 106.894531 C 37.503906 106.863281 37.597656 106.800781 37.730469 106.625 C 38.039062 106.230469 38.363281 105.296875 38.375 104.152344 C 38.386719 103.339844 38.621094 102.578125 39.011719 101.925781 C 39.1875 102.652344 39.273438 103.375 39.273438 104.046875 C 39.273438 104.066406 39.269531 104.109375 39.269531 104.160156 C 39.257812 105.539062 38.859375 106.636719 38.445312 107.167969 C 38.238281 107.441406 38.046875 107.59375 37.847656 107.699219 C 37.644531 107.800781 37.414062 107.875 37 107.878906 C 36.40625 107.878906 35.378906 107.671875 33.953125 106.875 C 32.53125 106.082031 30.742188 104.714844 28.691406 102.605469 C 27.308594 101.183594 25.035156 101.15625 23.617188 102.539062 C 22.195312 103.921875 22.167969 106.191406 23.550781 107.613281 C 25.964844 110.089844 28.238281 111.898438 30.453125 113.136719 C 32.660156 114.371094 34.84375 115.050781 37 115.054688 C 37.007812 115.054688 37.015625 115.054688 37.023438 115.054688 C 38.480469 115.054688 39.902344 114.714844 41.132812 114.078125 C 43.007812 113.113281 44.363281 111.535156 45.195312 109.816406 C 46.035156 108.089844 46.417969 106.195312 46.445312 104.257812 C 46.445312 104.25 46.445312 104.242188 46.445312 104.234375 C 46.445312 104.230469 46.445312 104.226562 46.445312 104.226562 C 46.445312 104.1875 46.449219 104.128906 46.449219 104.046875 C 46.445312 103.113281 46.363281 102.167969 46.195312 101.222656 C 45.910156 99.613281 45.378906 98.007812 44.59375 96.472656 C 43.34375 94.035156 41.421875 91.765625 38.800781 90.113281 C 38.335938 89.820312 37.828125 89.648438 37.3125 89.589844 Z M 37.3125 89.589844 "/>
<path style=" stroke:none;fill-rule:nonzero;fill:rgb(12.939453%,61.959839%,72.938538%);fill-opacity:1;" d="M 33.796875 87.394531 C 33.960938 88.039062 34.066406 88.6875 34.101562 89.351562 C 34.140625 90.011719 34.113281 90.671875 34.023438 91.328125 C 33.933594 91.984375 33.777344 92.625 33.558594 93.25 C 33.34375 93.875 33.066406 94.472656 32.730469 95.046875 C 32.394531 95.617188 32.007812 96.152344 31.566406 96.644531 C 31.125 97.140625 30.640625 97.585938 30.113281 97.988281 C 29.582031 98.386719 29.019531 98.730469 28.425781 99.019531 C 27.828125 99.308594 27.210938 99.535156 26.566406 99.703125 C 25.925781 99.867188 25.277344 99.972656 24.613281 100.011719 C 23.953125 100.046875 23.292969 100.023438 22.636719 99.929688 C 21.980469 99.839844 21.339844 99.683594 20.714844 99.46875 C 20.089844 99.25 19.488281 98.972656 18.917969 98.636719 C 18.347656 98.300781 17.8125 97.914062 17.320312 97.472656 C 16.824219 97.03125 16.378906 96.546875 15.976562 96.019531 C 15.578125 95.488281 15.234375 94.925781 14.945312 94.332031 C 14.65625 93.734375 14.429688 93.117188 14.261719 92.472656 C 14.097656 91.832031 13.992188 91.179688 13.953125 90.519531 C 13.917969 89.859375 13.941406 89.199219 14.035156 88.542969 C 14.125 87.886719 14.28125 87.246094 14.496094 86.621094 C 14.714844 85.992188 14.992188 85.394531 15.328125 84.824219 C 15.664062 84.253906 16.050781 83.71875 16.492188 83.226562 C 16.933594 82.730469 17.417969 82.28125 17.945312 81.882812 C 18.472656 81.484375 19.035156 81.140625 19.632812 80.851562 C 20.230469 80.5625 20.847656 80.335938 21.488281 80.167969 C 22.132812 80 22.78125 79.898438 23.445312 79.859375 C 24.105469 79.820312 24.765625 79.847656 25.421875 79.941406 C 26.078125 80.03125 26.71875 80.183594 27.34375 80.402344 C 27.96875 80.621094 28.566406 80.898438 29.140625 81.234375 C 29.710938 81.570312 30.242188 81.957031 30.738281 82.398438 C 31.234375 82.839844 31.679688 83.324219 32.082031 83.851562 C 32.480469 84.378906 32.824219 84.941406 33.113281 85.539062 C 33.402344 86.136719 33.628906 86.753906 33.796875 87.394531 Z M 33.796875 87.394531 "/>
<path style=" stroke:none;fill-rule:nonzero;fill:rgb(12.939453%,61.959839%,72.938538%);fill-opacity:1;" d="M 91.890625 103 L 91.890625 73.644531 C 93.207031 71.960938 96.148438 68.34375 100.007812 64.402344 C 104.710938 59.570312 110.84375 54.273438 116.714844 51.449219 C 118.5 50.585938 119.246094 48.441406 118.382812 46.65625 C 117.519531 44.875 115.375 44.128906 113.589844 44.992188 C 105.957031 48.707031 99.050781 55.019531 93.890625 60.40625 C 90.515625 63.941406 87.925781 67.089844 86.523438 68.859375 L 72.996094 68.859375 C 71.59375 67.089844 69.003906 63.941406 65.628906 60.40625 C 60.902344 55.472656 54.710938 49.769531 47.835938 45.988281 L 50.253906 43.230469 L 49.578125 42.636719 L 46.207031 39.683594 L 50.34375 34.960938 L 35.835938 22.25 L 17.808594 42.828125 L 32.316406 55.539062 L 36.453125 50.816406 L 40.5 54.359375 L 42.972656 51.535156 C 49.191406 54.570312 55.664062 60.335938 60.4375 65.359375 C 62.855469 67.894531 64.859375 70.234375 66.253906 71.929688 C 66.820312 72.621094 67.277344 73.195312 67.628906 73.644531 L 67.628906 146.957031 C 67.628906 150.019531 70.113281 152.5 73.175781 152.5 C 76.234375 152.5 78.71875 150.019531 78.71875 146.957031 L 78.71875 106.464844 L 80.796875 106.464844 L 80.796875 146.957031 C 80.796875 150.019531 83.28125 152.5 86.34375 152.5 C 89.40625 152.5 91.890625 150.019531 91.890625 146.957031 Z M 46.203125 45.128906 C 46.109375 45.085938 46.019531 45.035156 45.929688 44.988281 C 44.144531 44.128906 42 44.875 41.136719 46.65625 C 40.515625 47.933594 40.726562 49.394531 41.550781 50.441406 L 40.335938 51.828125 L 37.636719 49.464844 L 45.023438 41.03125 L 47.722656 43.394531 Z M 77.332031 76.558594 L 77.203125 76.351562 L 78.054688 72.988281 L 81.464844 72.988281 L 82.316406 76.351562 L 82.1875 76.558594 C 81.484375 77.144531 80.625 77.4375 79.757812 77.4375 C 78.894531 77.4375 78.035156 77.144531 77.332031 76.558594 Z M 79.757812 101.917969 L 75.5 96.535156 L 77.953125 78.453125 C 78.535156 78.667969 79.148438 78.785156 79.757812 78.78125 C 79.757812 78.78125 79.761719 78.78125 79.761719 78.78125 C 80.375 78.78125 80.984375 78.667969 81.566406 78.449219 L 84.019531 96.535156 Z M 79.757812 101.917969 "/>
<path style=" stroke:none;fill-rule:nonzero;fill:rgb(12.939453%,61.959839%,72.938538%);fill-opacity:1;" d="M 142.300781 73.90625 L 148.179688 49.425781 L 175.386719 27.820312 L 177.519531 31.109375 L 178.269531 30.621094 L 182.035156 28.179688 L 185.449219 33.449219 L 201.628906 22.953125 L 186.742188 0 L 170.5625 10.496094 L 173.980469 15.761719 L 169.464844 18.691406 L 171.472656 21.785156 C 171.382812 21.84375 171.292969 21.90625 171.207031 21.972656 L 144.488281 43.195312 L 130.328125 39.792969 L 110.136719 10.691406 C 109.007812 9.0625 106.773438 8.65625 105.144531 9.789062 C 103.515625 10.917969 103.113281 13.152344 104.242188 14.78125 L 124.527344 44.023438 L 118.105469 70.769531 L 100.574219 111.539062 C 99.367188 114.351562 100.667969 117.613281 103.480469 118.824219 C 106.292969 120.03125 109.554688 118.734375 110.765625 115.917969 L 127.191406 77.71875 L 130.878906 78.605469 L 128.164062 120.097656 C 127.964844 123.15625 130.277344 125.792969 133.332031 125.996094 C 136.390625 126.195312 139.03125 123.878906 139.230469 120.824219 Z M 176.25 22.554688 C 175.496094 21.605469 174.359375 21.140625 173.234375 21.203125 L 171.945312 19.222656 L 174.957031 17.269531 L 181.058594 26.675781 L 178.046875 28.628906 L 176.625 26.433594 C 177.25 25.214844 177.15625 23.695312 176.25 22.554688 Z M 138.335938 49.425781 L 138.160156 49.59375 C 137.339844 50 136.4375 50.082031 135.597656 49.882812 C 134.753906 49.679688 133.988281 49.195312 133.441406 48.460938 L 133.363281 48.230469 L 134.980469 45.160156 L 136.636719 45.558594 L 138.292969 45.953125 Z M 133.605469 50.445312 C 134.117188 50.792969 134.6875 51.046875 135.28125 51.191406 C 135.28125 51.191406 135.285156 51.191406 135.285156 51.191406 C 135.878906 51.335938 136.5 51.367188 137.117188 51.289062 L 135.28125 69.449219 L 129.878906 73.6875 L 126.992188 67.457031 Z M 133.605469 50.445312 "/>
<path style=" stroke:none;fill-rule:nonzero;fill:rgb(12.939453%,61.959839%,72.938538%);fill-opacity:1;" d="M 189.527344 56.210938 C 189.527344 56.875 189.460938 57.53125 189.332031 58.179688 C 189.203125 58.828125 189.011719 59.460938 188.757812 60.074219 C 188.503906 60.683594 188.191406 61.265625 187.824219 61.816406 C 187.457031 62.367188 187.039062 62.878906 186.570312 63.347656 C 186.101562 63.816406 185.59375 64.234375 185.042969 64.601562 C 184.488281 64.96875 183.910156 65.28125 183.296875 65.535156 C 182.683594 65.789062 182.054688 65.980469 181.402344 66.109375 C 180.753906 66.238281 180.097656 66.304688 179.433594 66.304688 C 178.773438 66.304688 178.117188 66.238281 177.464844 66.109375 C 176.816406 65.980469 176.183594 65.789062 175.574219 65.535156 C 174.960938 65.28125 174.378906 64.96875 173.828125 64.601562 C 173.277344 64.234375 172.769531 63.816406 172.300781 63.347656 C 171.832031 62.878906 171.414062 62.367188 171.042969 61.816406 C 170.675781 61.265625 170.367188 60.683594 170.113281 60.074219 C 169.859375 59.460938 169.667969 58.828125 169.539062 58.179688 C 169.40625 57.53125 169.34375 56.875 169.34375 56.210938 C 169.34375 55.546875 169.40625 54.890625 169.539062 54.242188 C 169.667969 53.59375 169.859375 52.960938 170.113281 52.347656 C 170.367188 51.738281 170.675781 51.15625 171.042969 50.605469 C 171.414062 50.054688 171.832031 49.542969 172.300781 49.074219 C 172.769531 48.605469 173.277344 48.1875 173.828125 47.820312 C 174.378906 47.453125 174.960938 47.140625 175.574219 46.886719 C 176.183594 46.632812 176.816406 46.441406 177.464844 46.3125 C 178.117188 46.183594 178.773438 46.121094 179.433594 46.121094 C 180.097656 46.121094 180.753906 46.183594 181.402344 46.3125 C 182.054688 46.441406 182.683594 46.632812 183.296875 46.886719 C 183.910156 47.140625 184.488281 47.453125 185.042969 47.820312 C 185.59375 48.1875 186.101562 48.605469 186.570312 49.074219 C 187.039062 49.542969 187.457031 50.054688 187.824219 50.605469 C 188.191406 51.15625 188.503906 51.738281 188.757812 52.347656 C 189.011719 52.960938 189.203125 53.59375 189.332031 54.242188 C 189.460938 54.890625 189.527344 55.546875 189.527344 56.210938 Z M 189.527344 56.210938 "/>
<path style=" stroke:none;fill-rule:nonzero;fill:rgb(12.939453%,61.959839%,72.938538%);fill-opacity:1;" d="M 191.5625 99.683594 L 191.5625 75.765625 C 192.914062 75.285156 194.597656 74.5 196.328125 73.214844 C 198.199219 71.820312 200.097656 69.804688 201.480469 67.039062 C 202.875 64.28125 203.730469 60.8125 203.726562 56.636719 C 203.722656 51.734375 202.582031 45.847656 199.828125 38.640625 C 199.121094 36.789062 197.046875 35.863281 195.195312 36.570312 C 193.34375 37.277344 192.417969 39.351562 193.125 41.203125 C 195.652344 47.8125 196.554688 52.871094 196.550781 56.636719 C 196.546875 59.859375 195.914062 62.132812 195.070312 63.820312 C 193.804688 66.328125 191.988281 67.671875 190.390625 68.480469 C 189.597656 68.875 188.878906 69.117188 188.386719 69.25 C 188.296875 69.273438 188.214844 69.292969 188.140625 69.3125 C 188.128906 69.3125 188.113281 69.308594 188.097656 69.308594 L 170.769531 69.308594 C 170.335938 69.308594 169.925781 69.390625 169.546875 69.535156 C 169.503906 69.550781 169.464844 69.566406 169.425781 69.578125 C 169.425781 69.582031 169.421875 69.582031 169.417969 69.582031 C 168.699219 69.84375 168.054688 70.332031 167.613281 71.03125 C 167.613281 71.03125 167.605469 71.046875 167.566406 71.105469 C 167.292969 71.527344 165.847656 73.710938 164.164062 75.640625 C 163.332031 76.601562 162.429688 77.5 161.710938 78.039062 C 161.679688 78.0625 161.652344 78.085938 161.621094 78.105469 C 161.578125 77.933594 161.535156 77.738281 161.492188 77.519531 C 161.308594 76.535156 161.175781 75.078125 161.179688 73.15625 C 161.179688 71.507812 161.269531 69.511719 161.480469 67.152344 C 161.65625 65.175781 160.195312 63.433594 158.222656 63.261719 C 156.25 63.085938 154.507812 64.542969 154.332031 66.519531 C 154.109375 69.046875 154 71.238281 154 73.15625 C 154.019531 76.796875 154.335938 79.402344 155.242188 81.601562 C 155.703125 82.695312 156.367188 83.730469 157.386719 84.539062 C 158.371094 85.339844 159.699219 85.769531 160.863281 85.769531 C 160.886719 85.769531 160.914062 85.769531 160.9375 85.765625 C 162.140625 85.761719 163.148438 85.429688 164.007812 85.023438 C 165.285156 84.402344 166.335938 83.585938 167.304688 82.703125 L 167.304688 102.285156 L 159.78125 146.015625 C 159.261719 149.035156 161.289062 151.902344 164.304688 152.421875 C 167.324219 152.941406 170.191406 150.917969 170.710938 147.898438 L 177.761719 106.917969 L 181.554688 106.917969 L 188.605469 147.898438 C 189.125 150.914062 191.992188 152.941406 195.011719 152.421875 C 198.027344 151.902344 200.054688 149.035156 199.535156 146.015625 Z M 177.007812 77.007812 L 176.878906 76.800781 L 177.730469 73.4375 L 181.136719 73.4375 L 181.992188 76.800781 L 181.859375 77.003906 C 181.160156 77.589844 180.296875 77.886719 179.433594 77.886719 C 178.570312 77.886719 177.710938 77.59375 177.007812 77.007812 Z M 179.433594 102.367188 L 175.175781 96.984375 L 177.628906 78.898438 C 178.210938 79.117188 178.820312 79.230469 179.433594 79.230469 C 179.433594 79.230469 179.4375 79.230469 179.4375 79.230469 C 180.046875 79.230469 180.660156 79.117188 181.242188 78.898438 L 183.695312 96.984375 Z M 179.433594 102.367188 "/>
<g clip-path="url(#clip2)" clip-rule="nonzero">
<path style=" stroke:none;fill-rule:nonzero;fill:rgb(12.939453%,61.959839%,72.938538%);fill-opacity:1;" d="M 249.335938 106.609375 C 247.652344 104.574219 245.960938 103.101562 244.53125 102.058594 C 241.652344 92.535156 243.570312 87.394531 247.359375 81.128906 L 256.984375 82.496094 C 257.152344 82.519531 257.320312 82.53125 257.488281 82.53125 C 258.464844 82.53125 259.40625 82.132812 260.089844 81.414062 L 272.425781 68.40625 C 273.015625 67.785156 273.335938 67.007812 273.398438 66.214844 L 283.585938 64.890625 L 281.046875 45.359375 L 276.261719 45.984375 L 275.300781 43.210938 L 261.140625 48.121094 L 266.664062 64.054688 L 256.15625 75.132812 L 245.332031 73.59375 C 245.304688 73.585938 245.28125 73.574219 245.257812 73.570312 C 240.15625 72.4375 235.058594 71.300781 229.960938 70.167969 L 220.546875 60.355469 C 221.949219 58.921875 223.800781 57.035156 225.660156 55.148438 C 227.554688 53.226562 229.457031 51.304688 230.890625 49.875 C 231.605469 49.164062 232.207031 48.570312 232.617188 48.175781 C 232.753906 48.042969 232.871094 47.933594 232.957031 47.855469 C 233.867188 47.203125 234.464844 46.136719 234.464844 44.929688 C 234.511719 44.09375 234.015625 42.804688 233.136719 42.144531 C 232.277344 41.460938 231.449219 41.34375 230.871094 41.339844 C 229.875 41.375 229.597656 41.589844 229.34375 41.679688 C 228.914062 41.890625 228.820312 41.980469 228.703125 42.058594 C 228.351562 42.328125 228.269531 42.421875 228.058594 42.609375 C 227.378906 43.246094 226.164062 44.449219 224.636719 45.984375 C 220.078125 50.558594 212.988281 57.820312 212.984375 57.824219 C 211.632812 59.210938 211.621094 61.414062 212.964844 62.816406 L 222.195312 72.4375 C 220.046875 83.378906 221.378906 91.703125 223.796875 102.128906 C 223.832031 102.402344 223.882812 102.675781 223.960938 102.949219 C 224.054688 103.273438 225.457031 108.550781 225.453125 116.445312 C 225.453125 124.117188 224.144531 134.214844 219.15625 144.851562 C 217.839844 147.652344 219.046875 150.992188 221.847656 152.308594 C 222.617188 152.667969 223.429688 152.839844 224.226562 152.839844 C 226.332031 152.839844 228.351562 151.644531 229.304688 149.613281 C 235.140625 137.171875 236.664062 125.375 236.664062 116.445312 C 236.664062 114.167969 236.566406 112.078125 236.414062 110.199219 C 236.457031 110.21875 236.5 110.242188 236.546875 110.261719 C 236.773438 110.371094 238.992188 111.480469 241.132812 114.308594 C 243.332031 117.25 245.660156 122.027344 245.683594 130.421875 C 245.683594 134.617188 245.074219 139.710938 243.472656 145.847656 C 242.691406 148.84375 244.488281 151.90625 247.484375 152.6875 C 247.957031 152.808594 248.433594 152.871094 248.902344 152.871094 C 251.390625 152.871094 253.664062 151.199219 254.324219 148.675781 C 256.128906 141.75 256.894531 135.707031 256.894531 130.421875 C 256.933594 119.152344 253.28125 111.335938 249.335938 106.609375 Z M 235.257812 75.296875 C 235.75 75.507812 238.667969 75.957031 239.160156 76.167969 C 239.164062 77.285156 238.265625 78.777344 238.335938 79.855469 C 238.289062 79.902344 238.242188 79.949219 238.195312 79.996094 C 237.476562 80.324219 236.660156 80.382812 235.882812 80.160156 C 235.117188 79.9375 234.398438 79.4375 233.878906 78.652344 C 233.851562 78.566406 233.820312 78.484375 233.792969 78.394531 C 234.257812 77.332031 234.746094 76.300781 235.257812 75.296875 Z M 236.742188 103.683594 C 235.097656 102.511719 233.484375 101.136719 231.925781 99.554688 C 231.703125 92.925781 232.488281 86.578125 234.117188 80.714844 C 234.605469 81.066406 235.140625 81.3125 235.6875 81.449219 L 235.691406 81.449219 C 236.242188 81.585938 236.8125 81.617188 237.363281 81.550781 C 237.289062 87.238281 238.070312 92.632812 239.566406 97.558594 C 238.519531 99.414062 237.570312 101.457031 236.742188 103.683594 Z M 236.742188 103.683594 "/>
</g>
<path style=" stroke:none;fill-rule:nonzero;fill:rgb(12.939453%,61.959839%,72.938538%);fill-opacity:1;" d="M 251.664062 60.9375 C 251.664062 61.601562 251.601562 62.257812 251.46875 62.90625 C 251.339844 63.558594 251.148438 64.1875 250.894531 64.800781 C 250.644531 65.414062 250.332031 65.996094 249.964844 66.546875 C 249.597656 67.097656 249.175781 67.605469 248.707031 68.074219 C 248.242188 68.542969 247.730469 68.960938 247.179688 69.332031 C 246.628906 69.699219 246.046875 70.007812 245.433594 70.261719 C 244.824219 70.515625 244.191406 70.707031 243.542969 70.835938 C 242.890625 70.964844 242.234375 71.03125 241.574219 71.03125 C 240.910156 71.03125 240.253906 70.964844 239.605469 70.835938 C 238.953125 70.707031 238.324219 70.515625 237.710938 70.261719 C 237.097656 70.007812 236.519531 69.699219 235.96875 69.332031 C 235.417969 68.960938 234.90625 68.542969 234.4375 68.074219 C 233.96875 67.605469 233.550781 67.097656 233.183594 66.546875 C 232.816406 65.996094 232.503906 65.414062 232.25 64.800781 C 231.996094 64.1875 231.804688 63.558594 231.675781 62.90625 C 231.546875 62.257812 231.480469 61.601562 231.480469 60.9375 C 231.480469 60.277344 231.546875 59.621094 231.675781 58.96875 C 231.804688 58.320312 231.996094 57.6875 232.25 57.078125 C 232.503906 56.464844 232.816406 55.882812 233.183594 55.332031 C 233.550781 54.78125 233.96875 54.273438 234.4375 53.804688 C 234.90625 53.335938 235.417969 52.917969 235.96875 52.546875 C 236.519531 52.179688 237.097656 51.867188 237.710938 51.617188 C 238.324219 51.363281 238.953125 51.171875 239.605469 51.042969 C 240.253906 50.910156 240.910156 50.847656 241.574219 50.847656 C 242.234375 50.847656 242.890625 50.910156 243.542969 51.042969 C 244.191406 51.171875 244.824219 51.363281 245.433594 51.617188 C 246.046875 51.867188 246.628906 52.179688 247.179688 52.546875 C 247.730469 52.917969 248.242188 53.335938 248.707031 53.804688 C 249.175781 54.273438 249.597656 54.78125 249.964844 55.332031 C 250.332031 55.882812 250.644531 56.464844 250.894531 57.078125 C 251.148438 57.6875 251.339844 58.320312 251.46875 58.96875 C 251.601562 59.621094 251.664062 60.277344 251.664062 60.9375 Z M 251.664062 60.9375 "/>
<path style=" stroke:none;fill-rule:nonzero;fill:rgb(12.939453%,61.959839%,72.938538%);fill-opacity:1;" d="M 256.628906 245.453125 L 45.257812 245.453125 C 35.785156 245.453125 28.070312 237.714844 28.070312 228.21875 L 28.070312 162.929688 C 28.070312 153.433594 35.785156 145.695312 45.257812 145.695312 L 256.628906 145.695312 C 266.101562 145.695312 273.816406 153.433594 273.816406 162.929688 L 273.816406 228.21875 C 273.816406 237.714844 266.101562 245.453125 256.628906 245.453125 Z M 256.628906 245.453125 "/>
</g>
</svg>
